<svg width="3572" height="1133" viewBox="0 0 3572 1133" fill="none" xmlns="http://www.w3.org/2000/svg">
<rect x="30" y="30" width="1080" height="1073" rx="125" stroke="#17616E" stroke-width="60"/>
<path d="M817.627 371L498.063 555.5L178.5 371L498.063 186.5L817.627 371Z" fill="#27888D"/>
<path d="M527.5 593V920.36H580.5V807H721.5V701H841.5V411.712L527.5 593Z" fill="#27888D"/>
<path d="M632 856H714V973H632V856Z" fill="#FD8916"/>
<path d="M768 746H850V973H768V746Z" fill="#FD8916"/>
<path d="M904 533H986V973H904V533Z" fill="#FD8916"/>
<path d="M477 585.5V919.5L173.025 744V410L477 585.5Z" fill="#17616E"/>
<path d="M1333.4 482V119.504H1591.45V187.6H1406.62V281.296H1562.78V348.88H1406.62V482H1333.4Z" fill="#17616E"/>
<path d="M1755.03 485.584C1715.43 485.584 1684.88 475.515 1663.38 455.376C1642.22 434.896 1631.64 404.176 1631.64 363.216V212.176H1703.32V358.096C1703.32 370.384 1705.02 381.307 1708.44 390.864C1712.19 400.08 1717.82 407.419 1725.33 412.88C1733.18 418.342 1743.25 421.072 1755.54 421.072C1768.85 421.072 1779.09 418.171 1786.26 412.368C1793.43 406.566 1798.38 398.886 1801.11 389.328C1803.84 379.43 1805.2 369.019 1805.2 358.096V212.176H1876.37V363.216C1876.37 405.883 1865.62 436.944 1844.12 456.4C1822.95 475.856 1793.26 485.584 1755.03 485.584Z" fill="#17616E"/>
<path d="M1881.47 586.448V522.448H1901.44C1912.02 522.448 1919.7 520.571 1924.48 516.816C1929.6 513.062 1932.84 508.283 1934.21 502.48C1935.57 496.678 1936.26 490.704 1936.26 484.56V212.176H2007.94V494.8C2007.94 515.28 2005.03 532.347 1999.23 546C1993.43 559.654 1984.04 569.723 1971.07 576.208C1958.44 583.035 1941.21 586.448 1919.36 586.448H1881.47ZM1971.58 185.04C1958.27 185.04 1947.52 181.115 1939.33 173.264C1931.14 165.072 1927.04 154.662 1927.04 142.032C1927.04 128.72 1931.31 117.968 1939.84 109.776C1948.37 101.584 1959.13 97.4883 1972.1 97.4883C1984.04 97.4883 1994.28 101.584 2002.82 109.776C2011.69 117.627 2016.13 128.208 2016.13 141.52C2016.13 154.491 2011.86 165.072 2003.33 173.264C1995.14 181.115 1984.55 185.04 1971.58 185.04Z" fill="#17616E"/>
<path d="M2069.16 482V212.176H2140.84V482H2069.16ZM2105 185.04C2091.69 185.04 2080.94 181.115 2072.74 173.264C2064.55 165.072 2060.46 154.662 2060.46 142.032C2060.46 128.72 2064.72 117.968 2073.26 109.776C2081.79 101.584 2092.54 97.4883 2105.51 97.4883C2117.46 97.4883 2127.7 101.584 2136.23 109.776C2145.11 117.627 2149.54 128.208 2149.54 141.52C2149.54 154.491 2145.28 165.072 2136.74 173.264C2128.55 181.115 2117.97 185.04 2105 185.04Z" fill="#17616E"/>
<path d="M1339.54 965V603.016H1384.09V965H1339.54Z" fill="#FD8916"/>
<path d="M1462.8 965V695.176H1504.79L1506.84 736.136C1512.98 726.238 1520.83 718.046 1530.39 711.56C1539.95 705.075 1550.36 700.296 1561.62 697.224C1573.23 693.811 1584.49 692.104 1595.41 692.104C1621.69 692.104 1642.17 697.566 1656.85 708.488C1671.87 719.411 1682.45 734.259 1688.6 753.032C1695.08 771.464 1698.32 792.456 1698.32 816.008V965H1654.8V827.784C1654.8 815.155 1653.95 803.038 1652.24 791.432C1650.88 779.827 1647.81 769.416 1643.03 760.2C1638.59 750.984 1632.11 743.816 1623.57 738.696C1615.04 733.235 1603.6 730.504 1589.27 730.504C1571.52 730.504 1556.33 735.454 1543.7 745.352C1531.41 755.251 1522.03 768.563 1515.54 785.288C1509.4 802.014 1506.32 820.787 1506.32 841.608V965H1462.8Z" fill="#FD8916"/>
<path d="M1838.52 965L1734.58 695.176H1783.74L1868.73 923.016L1952.18 695.176H2001.85L1897.91 965H1838.52Z" fill="#FD8916"/>
<path d="M2156.54 968.072C2127.87 968.072 2104.15 962.27 2085.37 950.664C2066.6 938.718 2052.6 922.334 2043.39 901.512C2034.17 880.691 2029.56 856.968 2029.56 830.344C2029.56 803.379 2034.34 779.656 2043.9 759.176C2053.8 738.355 2068.13 721.971 2086.91 710.024C2105.68 698.078 2128.72 692.104 2156.03 692.104C2177.19 692.104 2195.28 696.2 2210.3 704.392C2225.66 712.243 2238.29 722.824 2248.19 736.136C2258.09 749.448 2265.25 764.126 2269.69 780.168C2274.13 795.87 2276.01 811.742 2275.32 827.784C2274.98 830.856 2274.64 833.928 2274.3 837C2274.3 840.072 2274.13 843.144 2273.79 846.216H2073.6C2074.96 861.918 2078.89 876.083 2085.37 888.712C2091.86 901.342 2101.07 911.411 2113.02 918.92C2124.97 926.088 2139.81 929.672 2157.56 929.672C2166.44 929.672 2175.31 928.648 2184.19 926.6C2193.4 924.211 2201.6 920.286 2208.76 914.824C2216.27 909.363 2221.56 902.024 2224.64 892.808H2269.18C2265.08 910.216 2257.4 924.552 2246.14 935.816C2234.88 946.739 2221.39 954.931 2205.69 960.392C2189.99 965.512 2173.61 968.072 2156.54 968.072ZM2074.62 808.328H2230.78C2230.44 792.968 2227.03 779.486 2220.54 767.88C2214.05 756.275 2205.18 747.23 2193.92 740.744C2182.99 734.259 2169.85 731.016 2154.49 731.016C2137.77 731.016 2123.6 734.6 2112 741.768C2100.73 748.936 2092.03 758.323 2085.88 769.928C2079.74 781.534 2075.99 794.334 2074.62 808.328Z" fill="#FD8916"/>
<path d="M2333.3 965V695.176H2375.29L2377.34 736.136C2383.48 726.238 2391.33 718.046 2400.89 711.56C2410.45 705.075 2420.86 700.296 2432.12 697.224C2443.73 693.811 2454.99 692.104 2465.91 692.104C2492.19 692.104 2512.67 697.566 2527.35 708.488C2542.37 719.411 2552.95 734.259 2559.1 753.032C2565.58 771.464 2568.82 792.456 2568.82 816.008V965H2525.3V827.784C2525.3 815.155 2524.45 803.038 2522.74 791.432C2521.38 779.827 2518.31 769.416 2513.53 760.2C2509.09 750.984 2502.61 743.816 2494.07 738.696C2485.54 733.235 2474.1 730.504 2459.77 730.504C2442.02 730.504 2426.83 735.454 2414.2 745.352C2401.91 755.251 2392.53 768.563 2386.04 785.288C2379.9 802.014 2376.82 820.787 2376.82 841.608V965H2333.3Z" fill="#FD8916"/>
<path d="M2737.18 968.072C2708.85 968.072 2688.88 960.392 2677.28 945.032C2666.01 929.672 2660.38 907.827 2660.38 879.496V733.576H2616.35V695.176H2660.38V614.28H2703.9V695.176H2786.84V733.576H2703.9V873.864C2703.9 884.104 2704.75 893.491 2706.46 902.024C2708.17 910.216 2711.75 916.872 2717.21 921.992C2722.67 926.771 2730.87 929.331 2741.79 929.672C2749.64 929.672 2756.47 928.307 2762.27 925.576C2768.41 922.846 2773.53 919.603 2777.63 915.848L2796.57 947.592C2790.77 952.371 2784.63 956.296 2778.14 959.368C2772 962.44 2765.51 964.659 2758.68 966.024C2752.2 967.39 2745.03 968.072 2737.18 968.072Z" fill="#FD8916"/>
<path d="M2956.56 968.072C2928.23 968.072 2904.51 962.27 2885.4 950.664C2866.28 938.718 2851.95 922.334 2842.39 901.512C2833.17 880.691 2828.56 856.968 2828.56 830.344C2828.56 803.379 2833.34 779.656 2842.9 759.176C2852.46 738.355 2866.79 721.971 2885.91 710.024C2905.02 698.078 2928.92 692.104 2957.59 692.104C2985.92 692.104 3009.47 698.078 3028.24 710.024C3047.36 721.971 3061.52 738.355 3070.74 759.176C3080.3 779.656 3085.08 803.379 3085.08 830.344C3085.08 856.968 3080.3 880.691 3070.74 901.512C3061.18 922.334 3046.85 938.718 3027.73 950.664C3008.96 962.27 2985.24 968.072 2956.56 968.072ZM2956.56 929.672C2976.36 929.672 2992.4 925.235 3004.69 916.36C3017.32 907.486 3026.54 895.539 3032.34 880.52C3038.48 865.502 3041.56 848.776 3041.56 830.344C3041.56 811.912 3038.48 795.187 3032.34 780.168C3026.54 765.15 3017.32 753.203 3004.69 744.328C2992.4 735.454 2976.36 731.016 2956.56 731.016C2937.11 731.016 2921.07 735.454 2908.44 744.328C2896.15 753.203 2886.93 765.15 2880.79 780.168C2874.99 795.187 2872.08 811.912 2872.08 830.344C2872.08 848.776 2874.99 865.502 2880.79 880.52C2886.93 895.539 2896.15 907.486 2908.44 916.36C2921.07 925.235 2937.11 929.672 2956.56 929.672Z" fill="#FD8916"/>
<path d="M3143.3 965V695.176H3185.29L3187.34 737.16C3194.16 726.579 3202.01 718.046 3210.89 711.56C3220.1 705.075 3230.17 700.296 3241.1 697.224C3252.36 693.811 3264.48 692.104 3277.45 692.104C3279.84 692.104 3282.06 692.104 3284.1 692.104C3286.49 692.104 3288.88 692.104 3291.27 692.104V733.064H3275.4C3254.24 733.064 3237 737.672 3223.69 746.888C3210.72 755.763 3201.33 767.88 3195.53 783.24C3189.73 798.259 3186.82 814.984 3186.82 833.416V965H3143.3Z" fill="#FD8916"/>
<path d="M3453.09 1085.83C3432.27 1085.83 3412.13 1082.93 3392.67 1077.13C3373.56 1071.33 3356.32 1061.26 3340.96 1046.92L3359.9 1012.62C3373.22 1023.2 3387.38 1031.56 3402.4 1037.7C3417.76 1043.85 3433.8 1046.92 3450.53 1046.92C3478.52 1046.92 3498.49 1038.73 3510.43 1022.34C3522.72 1006.3 3528.86 985.822 3528.86 960.904V928.648C3522.72 937.864 3514.87 945.544 3505.31 951.688C3496.1 957.491 3485.86 961.928 3474.59 965C3463.33 967.731 3451.72 969.096 3439.78 969.096C3413.15 969.096 3392.16 963.806 3376.8 953.224C3361.44 942.643 3350.52 927.966 3344.03 909.192C3337.55 890.419 3334.3 868.744 3334.3 844.168V695.176H3377.82V831.88C3377.82 844.168 3378.51 856.286 3379.87 868.232C3381.58 879.838 3384.82 890.419 3389.6 899.976C3394.38 909.192 3401.38 916.702 3410.59 922.504C3419.81 927.966 3432.1 930.696 3447.46 930.696C3466.91 930.696 3482.44 925.918 3494.05 916.36C3505.99 906.803 3514.53 894.003 3519.65 877.96C3525.11 861.918 3527.84 844.168 3527.84 824.712V695.176H3571.36V965C3571.36 984.456 3568.8 1001.69 3563.68 1016.71C3558.56 1031.73 3550.88 1044.36 3540.64 1054.6C3530.4 1064.84 3517.94 1072.52 3503.26 1077.64C3488.93 1083.1 3472.2 1085.83 3453.09 1085.83Z" fill="#FD8916"/>
</svg>
