<svg width="2239" height="989" viewBox="0 0 2239 989" fill="none" xmlns="http://www.w3.org/2000/svg">
<path d="M0.400024 385V22.5043H258.448V90.6003H73.616V184.296H229.776V251.88H73.616V385H0.400024Z" fill="#17616E"/>
<path d="M422.028 388.584C382.433 388.584 351.884 378.515 330.38 358.376C309.217 337.896 298.636 307.176 298.636 266.216V115.176H370.316V261.096C370.316 273.384 372.023 284.307 375.436 293.864C379.191 303.08 384.823 310.419 392.332 315.88C400.183 321.342 410.252 324.072 422.54 324.072C435.852 324.072 446.092 321.171 453.26 315.368C460.428 309.566 465.377 301.886 468.108 292.328C470.839 282.43 472.204 272.019 472.204 261.096V115.176H543.372V266.216C543.372 308.883 532.62 339.944 511.116 359.4C489.953 378.856 460.257 388.584 422.028 388.584Z" fill="#17616E"/>
<path d="M548.472 489.448V425.448H568.44C579.021 425.448 586.701 423.571 591.48 419.816C596.6 416.062 599.843 411.283 601.208 405.48C602.573 399.678 603.256 393.704 603.256 387.56V115.176H674.936V397.8C674.936 418.28 672.035 435.347 666.232 449C660.429 462.654 651.043 472.723 638.072 479.208C625.443 486.035 608.205 489.448 586.36 489.448H548.472ZM638.584 88.0403C625.272 88.0403 614.52 84.115 606.328 76.2643C598.136 68.0723 594.04 57.6616 594.04 45.0323C594.04 31.7203 598.307 20.9683 606.84 12.7763C615.373 4.58428 626.125 0.488281 639.096 0.488281C651.043 0.488281 661.283 4.58428 669.816 12.7763C678.691 20.6269 683.128 31.2083 683.128 44.5203C683.128 57.491 678.861 68.0723 670.328 76.2643C662.136 84.115 651.555 88.0403 638.584 88.0403Z" fill="#17616E"/>
<path d="M736.16 385V115.176H807.84V385H736.16ZM772 88.0403C758.688 88.0403 747.936 84.115 739.744 76.2643C731.552 68.0723 727.456 57.6616 727.456 45.0323C727.456 31.7203 731.723 20.9683 740.256 12.7763C748.789 4.58428 759.541 0.488281 772.512 0.488281C784.459 0.488281 794.699 4.58428 803.232 12.7763C812.107 20.6269 816.544 31.2083 816.544 44.5203C816.544 57.491 812.277 68.0723 803.744 76.2643C795.552 84.115 784.971 88.0403 772 88.0403Z" fill="#17616E"/>
<path d="M6.54403 868V506.016H51.088V868H6.54403Z" fill="#FD8916"/>
<path d="M129.804 868V598.176H171.788L173.836 639.136C179.98 629.238 187.831 621.046 197.388 614.56C206.945 608.075 217.356 603.296 228.62 600.224C240.225 596.811 251.489 595.104 262.412 595.104C288.695 595.104 309.175 600.566 323.852 611.488C338.871 622.411 349.452 637.259 355.596 656.032C362.081 674.464 365.324 695.456 365.324 719.008V868H321.804V730.784C321.804 718.155 320.951 706.038 319.244 694.432C317.879 682.827 314.807 672.416 310.028 663.2C305.591 653.984 299.105 646.816 290.572 641.696C282.039 636.235 270.604 633.504 256.268 633.504C238.519 633.504 223.329 638.454 210.7 648.352C198.412 658.251 189.025 671.563 182.54 688.288C176.396 705.014 173.324 723.787 173.324 744.608V868H129.804Z" fill="#FD8916"/>
<path d="M505.52 868L401.584 598.176H450.736L535.728 826.016L619.184 598.176H668.848L564.912 868H505.52Z" fill="#FD8916"/>
<path d="M823.54 871.072C794.868 871.072 771.145 865.27 752.372 853.664C733.599 841.718 719.604 825.334 710.388 804.512C701.172 783.691 696.564 759.968 696.564 733.344C696.564 706.379 701.343 682.656 710.9 662.176C720.799 641.355 735.135 624.971 753.908 613.024C772.681 601.078 795.721 595.104 823.028 595.104C844.191 595.104 862.281 599.2 877.3 607.392C892.66 615.243 905.289 625.824 915.188 639.136C925.087 652.448 932.255 667.126 936.692 683.168C941.129 698.87 943.007 714.742 942.324 730.784C941.983 733.856 941.641 736.928 941.3 740C941.3 743.072 941.129 746.144 940.788 749.216H740.596C741.961 764.918 745.887 779.083 752.372 791.712C758.857 804.342 768.073 814.411 780.02 821.92C791.967 829.088 806.815 832.672 824.564 832.672C833.439 832.672 842.313 831.648 851.188 829.6C860.404 827.211 868.596 823.286 875.764 817.824C883.273 812.363 888.564 805.024 891.636 795.808H936.18C932.084 813.216 924.404 827.552 913.14 838.816C901.876 849.739 888.393 857.931 872.692 863.392C856.991 868.512 840.607 871.072 823.54 871.072ZM741.62 711.328H897.78C897.439 695.968 894.025 682.486 887.54 670.88C881.055 659.275 872.18 650.23 860.916 643.744C849.993 637.259 836.852 634.016 821.492 634.016C804.767 634.016 790.601 637.6 778.996 644.768C767.732 651.936 759.028 661.323 752.884 672.928C746.74 684.534 742.985 697.334 741.62 711.328Z" fill="#FD8916"/>
<path d="M1000.3 868V598.176H1042.29L1044.34 639.136C1050.48 629.238 1058.33 621.046 1067.89 614.56C1077.45 608.075 1087.86 603.296 1099.12 600.224C1110.73 596.811 1121.99 595.104 1132.91 595.104C1159.19 595.104 1179.67 600.566 1194.35 611.488C1209.37 622.411 1219.95 637.259 1226.1 656.032C1232.58 674.464 1235.82 695.456 1235.82 719.008V868H1192.3V730.784C1192.3 718.155 1191.45 706.038 1189.74 694.432C1188.38 682.827 1185.31 672.416 1180.53 663.2C1176.09 653.984 1169.61 646.816 1161.07 641.696C1152.54 636.235 1141.1 633.504 1126.77 633.504C1109.02 633.504 1093.83 638.454 1081.2 648.352C1068.91 658.251 1059.53 671.563 1053.04 688.288C1046.9 705.014 1043.82 723.787 1043.82 744.608V868H1000.3Z" fill="#FD8916"/>
<path d="M1404.18 871.072C1375.85 871.072 1355.88 863.392 1344.28 848.032C1333.01 832.672 1327.38 810.827 1327.38 782.496V636.576H1283.35V598.176H1327.38V517.28H1370.9V598.176H1453.84V636.576H1370.9V776.864C1370.9 787.104 1371.75 796.491 1373.46 805.024C1375.17 813.216 1378.75 819.872 1384.21 824.992C1389.67 829.771 1397.87 832.331 1408.79 832.672C1416.64 832.672 1423.47 831.307 1429.27 828.576C1435.41 825.846 1440.53 822.603 1444.63 818.848L1463.57 850.592C1457.77 855.371 1451.63 859.296 1445.14 862.368C1439 865.44 1432.51 867.659 1425.68 869.024C1419.2 870.39 1412.03 871.072 1404.18 871.072Z" fill="#FD8916"/>
<path d="M1623.56 871.072C1595.23 871.072 1571.51 865.27 1552.4 853.664C1533.28 841.718 1518.95 825.334 1509.39 804.512C1500.17 783.691 1495.56 759.968 1495.56 733.344C1495.56 706.379 1500.34 682.656 1509.9 662.176C1519.46 641.355 1533.79 624.971 1552.91 613.024C1572.02 601.078 1595.92 595.104 1624.59 595.104C1652.92 595.104 1676.47 601.078 1695.24 613.024C1714.36 624.971 1728.52 641.355 1737.74 662.176C1747.3 682.656 1752.08 706.379 1752.08 733.344C1752.08 759.968 1747.3 783.691 1737.74 804.512C1728.18 825.334 1713.85 841.718 1694.73 853.664C1675.96 865.27 1652.24 871.072 1623.56 871.072ZM1623.56 832.672C1643.36 832.672 1659.4 828.235 1671.69 819.36C1684.32 810.486 1693.54 798.539 1699.34 783.52C1705.48 768.502 1708.56 751.776 1708.56 733.344C1708.56 714.912 1705.48 698.187 1699.34 683.168C1693.54 668.15 1684.32 656.203 1671.69 647.328C1659.4 638.454 1643.36 634.016 1623.56 634.016C1604.11 634.016 1588.07 638.454 1575.44 647.328C1563.15 656.203 1553.93 668.15 1547.79 683.168C1541.99 698.187 1539.08 714.912 1539.08 733.344C1539.08 751.776 1541.99 768.502 1547.79 783.52C1553.93 798.539 1563.15 810.486 1575.44 819.36C1588.07 828.235 1604.11 832.672 1623.56 832.672Z" fill="#FD8916"/>
<path d="M1810.3 868V598.176H1852.29L1854.34 640.16C1861.16 629.579 1869.01 621.046 1877.89 614.56C1887.1 608.075 1897.17 603.296 1908.1 600.224C1919.36 596.811 1931.48 595.104 1944.45 595.104C1946.84 595.104 1949.06 595.104 1951.1 595.104C1953.49 595.104 1955.88 595.104 1958.27 595.104V636.064H1942.4C1921.24 636.064 1904 640.672 1890.69 649.888C1877.72 658.763 1868.33 670.88 1862.53 686.24C1856.73 701.259 1853.82 717.984 1853.82 736.416V868H1810.3Z" fill="#FD8916"/>
<path d="M2120.09 988.832C2099.27 988.832 2079.13 985.931 2059.67 980.128C2040.56 974.326 2023.32 964.256 2007.96 949.92L2026.9 915.616C2040.22 926.198 2054.38 934.56 2069.4 940.704C2084.76 946.848 2100.8 949.92 2117.53 949.92C2145.52 949.92 2165.49 941.728 2177.43 925.344C2189.72 909.302 2195.86 888.822 2195.86 863.904V831.648C2189.72 840.864 2181.87 848.544 2172.31 854.688C2163.1 860.491 2152.86 864.928 2141.59 868C2130.33 870.731 2118.72 872.096 2106.78 872.096C2080.15 872.096 2059.16 866.806 2043.8 856.224C2028.44 845.643 2017.52 830.966 2011.03 812.192C2004.55 793.419 2001.3 771.744 2001.3 747.168V598.176H2044.82V734.88C2044.82 747.168 2045.51 759.286 2046.87 771.232C2048.58 782.838 2051.82 793.419 2056.6 802.976C2061.38 812.192 2068.38 819.702 2077.59 825.504C2086.81 830.966 2099.1 833.696 2114.46 833.696C2133.91 833.696 2149.44 828.918 2161.05 819.36C2172.99 809.803 2181.53 797.003 2186.65 780.96C2192.11 764.918 2194.84 747.168 2194.84 727.712V598.176H2238.36V868C2238.36 887.456 2235.8 904.694 2230.68 919.712C2225.56 934.731 2217.88 947.36 2207.64 957.6C2197.4 967.84 2184.94 975.52 2170.26 980.64C2155.93 986.102 2139.2 988.832 2120.09 988.832Z" fill="#FD8916"/>
</svg>
