<svg width="4185" height="759" viewBox="0 0 4185 759" fill="none" xmlns="http://www.w3.org/2000/svg">
<path d="M547.977 248.694L333.488 372.388L119 248.694L333.488 125L547.977 248.694Z" fill="#27888D"/>
<path d="M353.246 397.529V617H388.819V541H483.457V469.935H564V275.988L353.246 397.529Z" fill="#27888D"/>
<rect x="423" y="574" width="55" height="78" fill="#FD8916"/>
<rect x="514" y="500" width="56" height="152" fill="#FD8916"/>
<rect x="606" y="358" width="55" height="294" fill="#FD8916"/>
<rect x="20" y="20" width="724" height="719" rx="135" stroke="#17616E" stroke-width="40"/>
<path d="M319 391.804V614.658V616L116 498.196V274L319 391.804Z" fill="#17616E"/>
<path d="M900.4 550V187.504H1158.45V255.6H973.616V349.296H1129.78V416.88H973.616V550H900.4ZM1322.03 553.584C1282.43 553.584 1251.88 543.515 1230.38 523.376C1209.22 502.896 1198.64 472.176 1198.64 431.216V280.176H1270.32V426.096C1270.32 438.384 1272.02 449.307 1275.44 458.864C1279.19 468.08 1284.82 475.419 1292.33 480.88C1300.18 486.341 1310.25 489.072 1322.54 489.072C1335.85 489.072 1346.09 486.171 1353.26 480.368C1360.43 474.565 1365.38 466.885 1368.11 457.328C1370.84 447.429 1372.2 437.019 1372.2 426.096V280.176H1443.37V431.216C1443.37 473.883 1432.62 504.944 1411.12 524.4C1389.95 543.856 1360.26 553.584 1322.03 553.584ZM1448.47 654.448V590.448H1468.44C1479.02 590.448 1486.7 588.571 1491.48 584.816C1496.6 581.061 1499.84 576.283 1501.21 570.48C1502.57 564.677 1503.26 558.704 1503.26 552.56V280.176H1574.94V562.8C1574.94 583.28 1572.03 600.347 1566.23 614C1560.43 627.653 1551.04 637.723 1538.07 644.208C1525.44 651.035 1508.21 654.448 1486.36 654.448H1448.47ZM1538.58 253.04C1525.27 253.04 1514.52 249.115 1506.33 241.264C1498.14 233.072 1494.04 222.661 1494.04 210.032C1494.04 196.72 1498.31 185.968 1506.84 177.776C1515.37 169.584 1526.13 165.488 1539.1 165.488C1551.04 165.488 1561.28 169.584 1569.82 177.776C1578.69 185.627 1583.13 196.208 1583.13 209.52C1583.13 222.491 1578.86 233.072 1570.33 241.264C1562.14 249.115 1551.55 253.04 1538.58 253.04ZM1636.16 550V280.176H1707.84V550H1636.16ZM1672 253.04C1658.69 253.04 1647.94 249.115 1639.74 241.264C1631.55 233.072 1627.46 222.661 1627.46 210.032C1627.46 196.72 1631.72 185.968 1640.26 177.776C1648.79 169.584 1659.54 165.488 1672.51 165.488C1684.46 165.488 1694.7 169.584 1703.23 177.776C1712.11 185.627 1716.54 196.208 1716.54 209.52C1716.54 222.491 1712.28 233.072 1703.74 241.264C1695.55 249.115 1684.97 253.04 1672 253.04Z" fill="#17616E"/>
<path d="M1919.04 550V188.016H1963.59V550H1919.04ZM2042.3 550V280.176H2084.29L2086.34 321.136C2092.48 311.237 2100.33 303.045 2109.89 296.56C2119.45 290.075 2129.86 285.296 2141.12 282.224C2152.73 278.811 2163.99 277.104 2174.91 277.104C2201.19 277.104 2221.67 282.565 2236.35 293.488C2251.37 304.411 2261.95 319.259 2268.1 338.032C2274.58 356.464 2277.82 377.456 2277.82 401.008V550H2234.3V412.784C2234.3 400.155 2233.45 388.037 2231.74 376.432C2230.38 364.827 2227.31 354.416 2222.53 345.2C2218.09 335.984 2211.61 328.816 2203.07 323.696C2194.54 318.235 2183.1 315.504 2168.77 315.504C2151.02 315.504 2135.83 320.453 2123.2 330.352C2110.91 340.251 2101.53 353.563 2095.04 370.288C2088.9 387.013 2085.82 405.787 2085.82 426.608V550H2042.3ZM2418.02 550L2314.08 280.176H2363.24L2448.23 508.016L2531.68 280.176H2581.35L2477.41 550H2418.02ZM2736.04 553.072C2707.37 553.072 2683.65 547.269 2664.87 535.664C2646.1 523.717 2632.1 507.333 2622.89 486.512C2613.67 465.691 2609.06 441.968 2609.06 415.344C2609.06 388.379 2613.84 364.656 2623.4 344.176C2633.3 323.355 2647.63 306.971 2666.41 295.024C2685.18 283.077 2708.22 277.104 2735.53 277.104C2756.69 277.104 2774.78 281.2 2789.8 289.392C2805.16 297.243 2817.79 307.824 2827.69 321.136C2837.59 334.448 2844.75 349.125 2849.19 365.168C2853.63 380.869 2855.51 396.741 2854.82 412.784C2854.48 415.856 2854.14 418.928 2853.8 422C2853.8 425.072 2853.63 428.144 2853.29 431.216H2653.1C2654.46 446.917 2658.39 461.083 2664.87 473.712C2671.36 486.341 2680.57 496.411 2692.52 503.92C2704.47 511.088 2719.31 514.672 2737.06 514.672C2745.94 514.672 2754.81 513.648 2763.69 511.6C2772.9 509.211 2781.1 505.285 2788.26 499.824C2795.77 494.363 2801.06 487.024 2804.14 477.808H2848.68C2844.58 495.216 2836.9 509.552 2825.64 520.816C2814.38 531.739 2800.89 539.931 2785.19 545.392C2769.49 550.512 2753.11 553.072 2736.04 553.072ZM2654.12 393.328H2810.28C2809.94 377.968 2806.53 364.485 2800.04 352.88C2793.55 341.275 2784.68 332.229 2773.42 325.744C2762.49 319.259 2749.35 316.016 2733.99 316.016C2717.27 316.016 2703.1 319.6 2691.5 326.768C2680.23 333.936 2671.53 343.323 2665.38 354.928C2659.24 366.533 2655.49 379.333 2654.12 393.328ZM2912.8 550V280.176H2954.79L2956.84 321.136C2962.98 311.237 2970.83 303.045 2980.39 296.56C2989.95 290.075 3000.36 285.296 3011.62 282.224C3023.23 278.811 3034.49 277.104 3045.41 277.104C3071.69 277.104 3092.17 282.565 3106.85 293.488C3121.87 304.411 3132.45 319.259 3138.6 338.032C3145.08 356.464 3148.32 377.456 3148.32 401.008V550H3104.8V412.784C3104.8 400.155 3103.95 388.037 3102.24 376.432C3100.88 364.827 3097.81 354.416 3093.03 345.2C3088.59 335.984 3082.11 328.816 3073.57 323.696C3065.04 318.235 3053.6 315.504 3039.27 315.504C3021.52 315.504 3006.33 320.453 2993.7 330.352C2981.41 340.251 2972.03 353.563 2965.54 370.288C2959.4 387.013 2956.32 405.787 2956.32 426.608V550H2912.8ZM3316.68 553.072C3288.35 553.072 3268.38 545.392 3256.78 530.032C3245.51 514.672 3239.88 492.827 3239.88 464.496V318.576H3195.85V280.176H3239.88V199.28H3283.4V280.176H3366.34V318.576H3283.4V458.864C3283.4 469.104 3284.25 478.491 3285.96 487.024C3287.67 495.216 3291.25 501.872 3296.71 506.992C3302.17 511.771 3310.37 514.331 3321.29 514.672C3329.14 514.672 3335.97 513.307 3341.77 510.576C3347.91 507.845 3353.03 504.603 3357.13 500.848L3376.07 532.592C3370.27 537.371 3364.13 541.296 3357.64 544.368C3351.5 547.44 3345.01 549.659 3338.18 551.024C3331.7 552.389 3324.53 553.072 3316.68 553.072ZM3536.06 553.072C3507.73 553.072 3484.01 547.269 3464.9 535.664C3445.78 523.717 3431.45 507.333 3421.89 486.512C3412.67 465.691 3408.06 441.968 3408.06 415.344C3408.06 388.379 3412.84 364.656 3422.4 344.176C3431.96 323.355 3446.29 306.971 3465.41 295.024C3484.52 283.077 3508.42 277.104 3537.09 277.104C3565.42 277.104 3588.97 283.077 3607.74 295.024C3626.86 306.971 3641.02 323.355 3650.24 344.176C3659.8 364.656 3664.58 388.379 3664.58 415.344C3664.58 441.968 3659.8 465.691 3650.24 486.512C3640.68 507.333 3626.35 523.717 3607.23 535.664C3588.46 547.269 3564.74 553.072 3536.06 553.072ZM3536.06 514.672C3555.86 514.672 3571.9 510.235 3584.19 501.36C3596.82 492.485 3606.04 480.539 3611.84 465.52C3617.98 450.501 3621.06 433.776 3621.06 415.344C3621.06 396.912 3617.98 380.187 3611.84 365.168C3606.04 350.149 3596.82 338.203 3584.19 329.328C3571.9 320.453 3555.86 316.016 3536.06 316.016C3516.61 316.016 3500.57 320.453 3487.94 329.328C3475.65 338.203 3466.43 350.149 3460.29 365.168C3454.49 380.187 3451.58 396.912 3451.58 415.344C3451.58 433.776 3454.49 450.501 3460.29 465.52C3466.43 480.539 3475.65 492.485 3487.94 501.36C3500.57 510.235 3516.61 514.672 3536.06 514.672ZM3722.8 550V280.176H3764.79L3766.84 322.16C3773.66 311.579 3781.51 303.045 3790.39 296.56C3799.6 290.075 3809.67 285.296 3820.6 282.224C3831.86 278.811 3843.98 277.104 3856.95 277.104C3859.34 277.104 3861.56 277.104 3863.6 277.104C3865.99 277.104 3868.38 277.104 3870.77 277.104V318.064H3854.9C3833.74 318.064 3816.5 322.672 3803.19 331.888C3790.22 340.763 3780.83 352.88 3775.03 368.24C3769.23 383.259 3766.32 399.984 3766.32 418.416V550H3722.8ZM4032.59 670.832C4011.77 670.832 3991.63 667.931 3972.17 662.128C3953.06 656.325 3935.82 646.256 3920.46 631.92L3939.4 597.616C3952.72 608.197 3966.88 616.56 3981.9 622.704C3997.26 628.848 4013.3 631.92 4030.03 631.92C4058.02 631.92 4077.99 623.728 4089.93 607.344C4102.22 591.301 4108.36 570.821 4108.36 545.904V513.648C4102.22 522.864 4094.37 530.544 4084.81 536.688C4075.6 542.491 4065.36 546.928 4054.09 550C4042.83 552.731 4031.22 554.096 4019.28 554.096C3992.65 554.096 3971.66 548.805 3956.3 538.224C3940.94 527.643 3930.02 512.965 3923.53 494.192C3917.05 475.419 3913.8 453.744 3913.8 429.168V280.176H3957.32V416.88C3957.32 429.168 3958.01 441.285 3959.37 453.232C3961.08 464.837 3964.32 475.419 3969.1 484.976C3973.88 494.192 3980.88 501.701 3990.09 507.504C3999.31 512.965 4011.6 515.696 4026.96 515.696C4046.41 515.696 4061.94 510.917 4073.55 501.36C4085.49 491.803 4094.03 479.003 4099.15 462.96C4104.61 446.917 4107.34 429.168 4107.34 409.712V280.176H4150.86V550C4150.86 569.456 4148.3 586.693 4143.18 601.712C4138.06 616.731 4130.38 629.36 4120.14 639.6C4109.9 649.84 4097.44 657.52 4082.76 662.64C4068.43 668.101 4051.7 670.832 4032.59 670.832Z" fill="#FD8916"/>
</svg>
